# xmcd CD database file
# Copyright (C) 1993-1996 Ti Kan
#
# Track frame offsets:
# 150
# 10302
# 22650
# 36772
# 48517
# 60375
# 74362
# 83445
# 99007
# 111097
# 124250
# 136165
# 149552
# 162050
# 173045
#
# Disc length: 2510 seconds
#
# Revision: 0
# Processed by: cddbd v1.4b41PL1 Copyright (c) Steve Scherf et al.
# Submitted via: inCDius 1.1b5
#
DISCID=b509cc0f
DTITLE=Faron Young - Greatest Hits  Vol 2 and 3
DYEAR=1900
DGENRE=
TTITLE0=If You Ain't Lovin' (You Ain't Livin')
TTITLE1=Country Girl
TTITLE2=I'm Getting Nowhere (At Getting Over You)
TTITLE3=Unmitigated Gall
TTITLE4=If I Ever Fall In Love With A Honky Tonk Girl
TTITLE5=Four In The Morning
TTITLE6=Live Fast, Love Hard, Die Young
TTITLE7=The Memory
TTITLE8=Just Out Of Reach
TTITLE9=Step Aside
TTITLE10=Congratulations
TTITLE11=This Little Girl Of Mine
TTITLE12=Until I Can Make It On My Own
TTITLE13=That Over Thirty Look
TTITLE14=Almost Dawn In Denver
EXTD=
EXTT0=
EXTT1=
EXTT2=
EXTT3=
EXTT4=
EXTT5=
EXTT6=
EXTT7=
EXTT8=
EXTT9=
EXTT10=
EXTT11=
EXTT12=
EXTT13=
EXTT14=
PLAYORDER=
